<svg width="58" height="60" viewBox="0 0 58 60" fill="none" xmlns="http://www.w3.org/2000/svg">
<path d="M56.251 0H45.034C44.067 0 43.284 0.852 43.284 1.483V3.285C43.284 3.812 43.833 4.723 44.576 5.012V26.952C44.3328 26.8549 44.0738 26.8034 43.812 26.8H2.389C1.071 26.8 5.09804e-06 27.992 5.09804e-06 29.457C5.09804e-06 30.115 0.225005 30.711 0.583005 31.177C0.203857 31.6697 -0.00117877 32.2743 5.09804e-06 32.896C5.09804e-06 34.362 1.071 35.554 2.389 35.554H4.32501C4.89501 39.378 7.087 42.816 10.382 45.418C10.658 46.48 10.808 47.589 10.808 48.734C10.808 52.332 9.34001 54.998 6.97501 57.197H5.596C4.8 57.197 4.15301 57.824 4.15301 58.598C4.15301 59.372 4.8 60 5.596 60H45.993C46.79 60 47.436 59.373 47.436 58.599C47.436 57.825 46.79 57.198 45.993 57.198H44.616C42.251 54.999 40.782 52.333 40.782 48.735C40.782 48.212 40.817 47.696 40.878 47.187C48.209 47.028 54.114 41.178 54.284 33.914H55.265C56.063 33.914 56.707 32.932 56.707 32.411V5.012C57.451 4.723 58 3.813 58 3.285V1.483C58 0.852 57.218 0 56.251 0ZM1.89201 32.896C1.89201 32.449 2.155 32.115 2.389 32.115H41.865C42.0243 32.7452 42.4007 33.299 42.928 33.679H2.389C2.154 33.679 1.89201 33.344 1.89201 32.896ZM25.796 48.567C15.781 48.567 7.48801 42.886 6.21801 35.553H43.811C44.006 35.553 44.194 35.519 44.375 35.47H45.389C44.169 42.845 35.848 48.567 25.796 48.567ZM47.312 32.038C47.3569 31.8418 47.38 31.6413 47.381 31.44C47.381 30.629 47.026 29.908 46.468 29.399V5.109H54.817V32.038H47.312Z" fill="white"/>
</svg>
